<svg width="665" height="166" viewBox="0 0 665 166" fill="none" xmlns="http://www.w3.org/2000/svg">
<g filter="url(#filter0_d_429_201)">
<path d="M63.4561 42.3051V54.4933C58.7128 52.2247 54.2376 50.5336 50.0305 49.42C45.8234 48.3064 41.7607 47.7495 37.8423 47.7495C31.0367 47.7495 25.7779 49.0694 22.0657 51.7091C18.3948 54.3489 16.5594 58.1023 16.5594 62.9693C16.5594 67.0526 17.7762 70.1461 20.2097 72.2496C22.6844 74.3119 27.3452 75.9824 34.192 77.261L41.7401 78.8078C51.0616 80.5813 57.9291 83.716 62.3424 88.2118C66.797 92.6664 69.0243 98.6471 69.0243 106.154C69.0243 115.104 66.0133 121.889 59.9914 126.509C54.0107 131.128 45.2254 133.438 33.6352 133.438C29.2632 133.438 24.6024 132.943 19.6528 131.953C14.7446 130.963 9.6507 129.499 4.37121 127.56V114.692C9.44447 117.538 14.4146 119.683 19.2816 121.126C24.1487 122.57 28.9332 123.292 33.6352 123.292C40.7708 123.292 46.2771 121.889 50.1542 119.084C54.0314 116.28 55.9699 112.279 55.9699 107.082C55.9699 102.545 54.5676 98.9977 51.7628 96.4404C48.9994 93.8831 44.4417 91.9652 38.0898 90.6866L30.4799 89.2017C21.1583 87.3457 14.4146 84.4378 10.2488 80.4782C6.08292 76.5186 4 71.0123 4 63.9592C4 55.7925 6.8666 49.3581 12.5998 44.6561C18.3742 39.954 26.3141 37.603 36.4193 37.603C40.7502 37.603 45.1635 37.9949 49.6593 38.7785C54.1551 39.5622 58.754 40.7377 63.4561 42.3051Z" fill="white"/>
<path d="M86.8428 104.298V62.3506H98.2267V103.865C98.2267 110.423 99.5053 115.352 102.063 118.651C104.62 121.91 108.456 123.539 113.57 123.539C119.716 123.539 124.562 121.58 128.109 117.661C131.698 113.743 133.492 108.402 133.492 101.637V62.3506H144.876V131.644H133.492V121.002C130.729 125.209 127.511 128.344 123.84 130.406C120.211 132.427 115.983 133.438 111.157 133.438C103.197 133.438 97.1543 130.963 93.0297 126.014C88.9051 121.064 86.8428 113.826 86.8428 104.298Z" fill="white"/>
<path d="M208.477 72.992C207.199 72.2496 205.796 71.7134 204.27 71.3834C202.785 71.0122 201.135 70.8266 199.321 70.8266C192.886 70.8266 187.937 72.9302 184.472 77.1373C181.049 81.3031 179.337 87.3044 179.337 95.1411V131.644H167.891V62.3506H179.337V73.1158C181.729 68.9087 184.843 65.7946 188.679 63.7736C192.515 61.7113 197.176 60.6801 202.661 60.6801C203.445 60.6801 204.311 60.742 205.26 60.8657C206.209 60.9482 207.26 61.0926 208.415 61.2988L208.477 72.992Z" fill="white"/>
<path d="M249.249 138.078C246.031 146.327 242.897 151.71 239.845 154.226C236.792 156.742 232.709 158 227.594 158H218.5V148.472H225.182C228.316 148.472 230.75 147.73 232.482 146.245C234.214 144.76 236.132 141.254 238.236 135.727L240.278 130.53L212.251 62.3506H224.315L245.97 116.548L267.624 62.3506H279.688L249.249 138.078Z" fill="white"/>
<path d="M326.894 96.8116C317.696 96.8116 311.324 97.8634 307.776 99.9669C304.229 102.07 302.456 105.659 302.456 110.732C302.456 114.774 303.776 117.991 306.415 120.384C309.096 122.735 312.726 123.91 317.304 123.91C323.615 123.91 328.667 121.683 332.462 117.228C336.298 112.733 338.216 106.772 338.216 99.3482V96.8116H326.894ZM349.6 92.1095V131.644H338.216V121.126C335.617 125.333 332.38 128.447 328.502 130.468C324.625 132.448 319.882 133.438 314.273 133.438C307.178 133.438 301.528 131.458 297.321 127.499C293.155 123.498 291.072 118.156 291.072 111.475C291.072 103.679 293.67 97.8015 298.867 93.8419C304.106 89.8823 311.901 87.9025 322.254 87.9025H338.216V86.7888C338.216 81.5506 336.484 77.5085 333.019 74.6625C329.596 71.7753 324.77 70.3317 318.542 70.3317C314.582 70.3317 310.725 70.806 306.972 71.7547C303.219 72.7033 299.61 74.1263 296.145 76.0236V65.5059C300.311 63.8973 304.353 62.7012 308.271 61.9175C312.19 61.0926 316.005 60.6801 319.717 60.6801C329.74 60.6801 337.226 63.2786 342.176 68.4756C347.125 73.6726 349.6 81.5506 349.6 92.1095Z" fill="white"/>
<path d="M426.998 75.6524C429.844 70.5379 433.247 66.7639 437.206 64.3304C441.166 61.8969 445.827 60.6801 451.189 60.6801C458.407 60.6801 463.975 63.2167 467.893 68.29C471.812 73.322 473.771 80.4988 473.771 89.8204V131.644H462.325V90.1916C462.325 83.551 461.15 78.6221 458.799 75.4049C456.448 72.1877 452.859 70.5791 448.033 70.5791C442.135 70.5791 437.475 72.5383 434.051 76.4567C430.628 80.3751 428.916 85.7164 428.916 92.4808V131.644H417.47V90.1916C417.47 83.5098 416.295 78.5809 413.944 75.4049C411.593 72.1877 407.963 70.5791 403.055 70.5791C397.239 70.5791 392.62 72.559 389.196 76.5186C385.773 80.4369 384.061 85.7577 384.061 92.4808V131.644H372.615V62.3506H384.061V73.1158C386.659 68.8674 389.774 65.7327 393.403 63.7117C397.033 61.6906 401.343 60.6801 406.334 60.6801C411.366 60.6801 415.635 61.9587 419.141 64.516C422.688 67.0732 425.307 70.7854 426.998 75.6524Z" fill="white"/>
<path d="M527.968 96.8116C518.77 96.8116 512.398 97.8634 508.851 99.9669C505.303 102.07 503.53 105.659 503.53 110.732C503.53 114.774 504.85 117.991 507.489 120.384C510.17 122.735 513.8 123.91 518.378 123.91C524.689 123.91 529.742 121.683 533.536 117.228C537.372 112.733 539.29 106.772 539.29 99.3482V96.8116H527.968ZM550.674 92.1095V131.644H539.29V121.126C536.692 125.333 533.454 128.447 529.577 130.468C525.7 132.448 520.956 133.438 515.347 133.438C508.253 133.438 502.602 131.458 498.395 127.499C494.229 123.498 492.146 118.156 492.146 111.475C492.146 103.679 494.744 97.8015 499.941 93.8419C505.18 89.8823 512.975 87.9025 523.328 87.9025H539.29V86.7888C539.29 81.5506 537.558 77.5085 534.093 74.6625C530.67 71.7753 525.844 70.3317 519.616 70.3317C515.656 70.3317 511.8 70.806 508.046 71.7547C504.293 72.7033 500.684 74.1263 497.219 76.0236V65.5059C501.385 63.8973 505.427 62.7012 509.346 61.9175C513.264 61.0926 517.079 60.6801 520.791 60.6801C530.814 60.6801 538.3 63.2786 543.25 68.4756C548.199 73.6726 550.674 81.5506 550.674 92.1095Z" fill="white"/>
<path d="M614.275 72.992C612.997 72.2496 611.594 71.7134 610.068 71.3834C608.584 71.0122 606.934 70.8266 605.119 70.8266C598.685 70.8266 593.735 72.9302 590.27 77.1373C586.847 81.3031 585.135 87.3044 585.135 95.1411V131.644H573.689V62.3506H585.135V73.1158C587.527 68.9087 590.642 65.7946 594.477 63.7736C598.313 61.7113 602.974 60.6801 608.46 60.6801C609.243 60.6801 610.11 60.742 611.058 60.8657C612.007 60.9482 613.059 61.0926 614.214 61.2988L614.275 72.992Z" fill="white"/>
<path d="M637.476 42.6763V62.3506H660.925V71.1979H637.476V108.814C637.476 114.465 638.239 118.095 639.765 119.703C641.333 121.312 644.488 122.116 649.231 122.116H660.925V131.644H649.231C640.446 131.644 634.383 130.015 631.042 126.756C627.701 123.457 626.031 117.476 626.031 108.814V71.1979H617.678V62.3506H626.031V42.6763H637.476Z" fill="white"/>
<path fill-rule="evenodd" clip-rule="evenodd" d="M471.166 10.089V16.5163H477.593C481.878 16.5163 484.02 14.3739 484.02 10.089V3.66187H477.593C473.308 3.66187 471.166 5.80425 471.166 10.089Z" fill="#F07C00"/>
<path fill-rule="evenodd" clip-rule="evenodd" d="M485.08 20.5995V30.6565H495.137C501.842 30.6565 505.194 27.3042 505.194 20.5995V10.5427H495.137C488.432 10.5427 485.08 13.8949 485.08 20.5995Z" fill="#F07C00"/>
<path fill-rule="evenodd" clip-rule="evenodd" d="M467.716 28.8164V35.1742H474.074C478.312 35.1742 480.432 33.0549 480.432 28.8164V22.4586H474.074C469.835 22.4586 467.716 24.5779 467.716 28.8164Z" fill="#F07C00"/>
<path fill-rule="evenodd" clip-rule="evenodd" d="M488.256 3.46774V6.93548H491.724C494.036 6.93548 495.191 5.77957 495.191 3.46774V0H491.724C489.412 0 488.256 1.15591 488.256 3.46774Z" fill="#F07C00"/>
</g>
<defs>
<filter id="filter0_d_429_201" x="0" y="0" width="664.925" height="166" filterUnits="userSpaceOnUse" color-interpolation-filters="sRGB">
<feFlood flood-opacity="0" result="BackgroundImageFix"/>
<feColorMatrix in="SourceAlpha" type="matrix" values="0 0 0 0 0 0 0 0 0 0 0 0 0 0 0 0 0 0 127 0" result="hardAlpha"/>
<feOffset dy="4"/>
<feGaussianBlur stdDeviation="2"/>
<feComposite in2="hardAlpha" operator="out"/>
<feColorMatrix type="matrix" values="0 0 0 0 0 0 0 0 0 0 0 0 0 0 0 0 0 0 0.25 0"/>
<feBlend mode="normal" in2="BackgroundImageFix" result="effect1_dropShadow_429_201"/>
<feBlend mode="normal" in="SourceGraphic" in2="effect1_dropShadow_429_201" result="shape"/>
</filter>
</defs>
</svg>
